<?xml version="1.0" standalone="no"?>
<!DOCTYPE svg PUBLIC "-//W3C//DTD SVG 20010904//EN"
 "http://www.w3.org/TR/2001/REC-SVG-20010904/DTD/svg10.dtd">
<svg version="1.0" xmlns="http://www.w3.org/2000/svg"
 width="128.000000pt" height="133.000000pt" viewBox="0 0 128.000000 133.000000"
 preserveAspectRatio="xMidYMid meet">

<g transform="translate(0.000000,133.000000) scale(0.100000,-0.100000)"
fill="#ffffff" stroke="none">
<path d="M774 1080 c-12 -5 -52 -58 -89 -119 -37 -62 -71 -114 -75 -116 -4 -2
-39 39 -78 93 -61 85 -75 99 -111 108 -23 6 -41 9 -41 7 0 -2 44 -62 99 -135
l98 -131 -63 -106 -63 -106 -162 -7 c-89 -4 -166 -9 -172 -11 -5 -1 9 -15 32
-30 36 -24 48 -27 96 -22 30 3 80 7 110 10 30 3 55 1 55 -4 0 -4 -29 -59 -64
-122 -36 -63 -63 -115 -62 -117 2 -1 19 4 39 13 31 13 43 30 93 125 l57 110
151 0 151 0 75 -115 c64 -99 80 -117 109 -125 19 -5 37 -7 39 -5 3 2 -32 58
-77 124 l-81 120 147 3 146 3 -39 28 c-39 26 -45 27 -170 27 l-129 0 -75 105
c-41 58 -74 109 -73 115 2 5 37 64 78 131 98 157 99 159 83 158 -7 0 -23 -4
-34 -9z m-101 -420 l57 -80 -109 0 -110 0 47 80 c26 44 49 80 52 79 3 0 31
-35 63 -79z"/>
</g>
</svg>